<mxfile host="app.diagrams.net" modified="2022-10-09T18:10:05.293Z" agent="5.0 (Windows NT 10.0; Win64; x64) AppleWebKit/537.36 (KHTML, like Gecko) Chrome/105.0.0.0 Safari/537.36" etag="v58h96zsAhaoP9FHXhf9" version="20.4.0" type="github">
  <diagram id="R2lEEEUBdFMjLlhIrx00" name="Page-1">
    <mxGraphModel dx="1497" dy="827" grid="1" gridSize="10" guides="1" tooltips="1" connect="1" arrows="1" fold="1" page="1" pageScale="1" pageWidth="850" pageHeight="1100" math="0" shadow="0" extFonts="Permanent Marker^https://fonts.googleapis.com/css?family=Permanent+Marker">
      <root>
        <mxCell id="0" />
        <mxCell id="1" parent="0" />
        <mxCell id="ZRwwGj1ntow4z0AVms1C-13" style="edgeStyle=orthogonalEdgeStyle;rounded=0;orthogonalLoop=1;jettySize=auto;html=1;entryX=-0.006;entryY=0.617;entryDx=0;entryDy=0;entryPerimeter=0;" edge="1" parent="1" source="ZRwwGj1ntow4z0AVms1C-1" target="ZRwwGj1ntow4z0AVms1C-7">
          <mxGeometry relative="1" as="geometry" />
        </mxCell>
        <mxCell id="ZRwwGj1ntow4z0AVms1C-14" style="edgeStyle=orthogonalEdgeStyle;rounded=0;orthogonalLoop=1;jettySize=auto;html=1;entryX=0;entryY=0.5;entryDx=0;entryDy=0;" edge="1" parent="1" source="ZRwwGj1ntow4z0AVms1C-1" target="ZRwwGj1ntow4z0AVms1C-6">
          <mxGeometry relative="1" as="geometry" />
        </mxCell>
        <mxCell id="ZRwwGj1ntow4z0AVms1C-15" style="edgeStyle=orthogonalEdgeStyle;rounded=0;orthogonalLoop=1;jettySize=auto;html=1;entryX=0;entryY=0;entryDx=0;entryDy=0;" edge="1" parent="1" source="ZRwwGj1ntow4z0AVms1C-1" target="ZRwwGj1ntow4z0AVms1C-5">
          <mxGeometry relative="1" as="geometry" />
        </mxCell>
        <mxCell id="ZRwwGj1ntow4z0AVms1C-16" style="edgeStyle=orthogonalEdgeStyle;rounded=0;orthogonalLoop=1;jettySize=auto;html=1;entryX=1;entryY=0;entryDx=0;entryDy=0;" edge="1" parent="1" source="ZRwwGj1ntow4z0AVms1C-1" target="ZRwwGj1ntow4z0AVms1C-4">
          <mxGeometry relative="1" as="geometry" />
        </mxCell>
        <mxCell id="ZRwwGj1ntow4z0AVms1C-17" style="edgeStyle=orthogonalEdgeStyle;rounded=0;orthogonalLoop=1;jettySize=auto;html=1;entryX=1;entryY=0.5;entryDx=0;entryDy=0;" edge="1" parent="1" source="ZRwwGj1ntow4z0AVms1C-1" target="ZRwwGj1ntow4z0AVms1C-3">
          <mxGeometry relative="1" as="geometry" />
        </mxCell>
        <mxCell id="ZRwwGj1ntow4z0AVms1C-18" style="edgeStyle=orthogonalEdgeStyle;rounded=0;orthogonalLoop=1;jettySize=auto;html=1;entryX=1.019;entryY=0.55;entryDx=0;entryDy=0;entryPerimeter=0;" edge="1" parent="1" source="ZRwwGj1ntow4z0AVms1C-1" target="ZRwwGj1ntow4z0AVms1C-2">
          <mxGeometry relative="1" as="geometry" />
        </mxCell>
        <mxCell id="ZRwwGj1ntow4z0AVms1C-19" style="edgeStyle=orthogonalEdgeStyle;rounded=0;orthogonalLoop=1;jettySize=auto;html=1;entryX=0.5;entryY=1;entryDx=0;entryDy=0;" edge="1" parent="1" source="ZRwwGj1ntow4z0AVms1C-1" target="ZRwwGj1ntow4z0AVms1C-8">
          <mxGeometry relative="1" as="geometry" />
        </mxCell>
        <mxCell id="ZRwwGj1ntow4z0AVms1C-1" value="Cars" style="rounded=0;whiteSpace=wrap;html=1;" vertex="1" parent="1">
          <mxGeometry x="320" y="325" width="120" height="60" as="geometry" />
        </mxCell>
        <mxCell id="ZRwwGj1ntow4z0AVms1C-2" value="ID" style="ellipse;whiteSpace=wrap;html=1;" vertex="1" parent="1">
          <mxGeometry x="160" y="290" width="120" height="50" as="geometry" />
        </mxCell>
        <mxCell id="ZRwwGj1ntow4z0AVms1C-3" value="name" style="ellipse;whiteSpace=wrap;html=1;" vertex="1" parent="1">
          <mxGeometry x="170" y="350" width="120" height="50" as="geometry" />
        </mxCell>
        <mxCell id="ZRwwGj1ntow4z0AVms1C-4" value="rent" style="ellipse;whiteSpace=wrap;html=1;" vertex="1" parent="1">
          <mxGeometry x="250" y="400" width="120" height="50" as="geometry" />
        </mxCell>
        <mxCell id="ZRwwGj1ntow4z0AVms1C-5" value="description" style="ellipse;whiteSpace=wrap;html=1;" vertex="1" parent="1">
          <mxGeometry x="390" y="400" width="120" height="50" as="geometry" />
        </mxCell>
        <mxCell id="ZRwwGj1ntow4z0AVms1C-6" value="capacity" style="ellipse;whiteSpace=wrap;html=1;" vertex="1" parent="1">
          <mxGeometry x="470" y="350" width="120" height="50" as="geometry" />
        </mxCell>
        <mxCell id="ZRwwGj1ntow4z0AVms1C-7" value="createdAt" style="ellipse;whiteSpace=wrap;html=1;" vertex="1" parent="1">
          <mxGeometry x="470" y="290" width="120" height="50" as="geometry" />
        </mxCell>
        <mxCell id="ZRwwGj1ntow4z0AVms1C-8" value="updatedAt" style="ellipse;whiteSpace=wrap;html=1;" vertex="1" parent="1">
          <mxGeometry x="320" y="240" width="120" height="50" as="geometry" />
        </mxCell>
      </root>
    </mxGraphModel>
  </diagram>
</mxfile>
